<svg width="25" height="25" viewBox="0 0 25 25" fill="none" xmlns="http://www.w3.org/2000/svg">
<g clip-path="url(#clip0)">
<path d="M12.3896 25C12.2531 25 12.1198 24.9458 12.0208 24.8479C11.8979 24.725 11.8437 24.5479 11.8781 24.3781L12.6146 20.6958C12.6354 20.5937 12.6833 20.501 12.7573 20.4291L20.8594 12.327C21.4677 11.7187 22.4604 11.7187 23.0688 12.327L24.5417 13.8C25.1511 14.4093 25.1511 15.4 24.5417 16.0093L16.4396 24.1114C16.3677 24.1843 16.275 24.2333 16.1729 24.2541L12.4906 24.9906C12.4573 24.9968 12.4229 25 12.3896 25ZM13.6063 21.0531L13.0542 23.8145L15.8156 23.2625L23.8063 15.2718C24.0094 15.0687 24.0094 14.7385 23.8063 14.5354L22.3333 13.0625C22.1302 12.8593 21.8 12.8593 21.5969 13.0625L13.6063 21.0531ZM16.0719 23.7427H16.0823H16.0719Z" fill="#D2D2D2"/>
<path d="M9.89583 21.875H2.60416C1.1677 21.875 -7.62939e-06 20.7073 -7.62939e-06 19.2708V5.72917C-7.62939e-06 4.29271 1.1677 3.125 2.60416 3.125H4.68749C4.97499 3.125 5.20833 3.35833 5.20833 3.64583C5.20833 3.93333 4.97499 4.16667 4.68749 4.16667H2.60416C1.7427 4.16667 1.04166 4.86771 1.04166 5.72917V19.2708C1.04166 20.1323 1.7427 20.8333 2.60416 20.8333H9.89583C10.1833 20.8333 10.4167 21.0667 10.4167 21.3542C10.4167 21.6417 10.1833 21.875 9.89583 21.875Z" fill="#D2D2D2"/>
<path d="M17.1875 12.5C16.9 12.5 16.6667 12.2667 16.6667 11.9792V5.72917C16.6667 4.86771 15.9656 4.16667 15.1042 4.16667H13.0208C12.7333 4.16667 12.5 3.93333 12.5 3.64583C12.5 3.35833 12.7333 3.125 13.0208 3.125H15.1042C16.5406 3.125 17.7083 4.29271 17.7083 5.72917V11.9792C17.7083 12.2667 17.475 12.5 17.1875 12.5Z" fill="#D2D2D2"/>
<path d="M11.9792 6.25H5.72917C4.86771 6.25 4.16667 5.54896 4.16667 4.6875V2.60417C4.16667 2.31667 4.4 2.08333 4.6875 2.08333H6.30209C6.54375 0.895833 7.59688 0 8.85417 0C10.1115 0 11.1646 0.895833 11.4063 2.08333H13.0208C13.3083 2.08333 13.5417 2.31667 13.5417 2.60417V4.6875C13.5417 5.54896 12.8406 6.25 11.9792 6.25ZM5.20834 3.125V4.6875C5.20834 4.97396 5.44271 5.20833 5.72917 5.20833H11.9792C12.2656 5.20833 12.5 4.97396 12.5 4.6875V3.125H10.9375C10.65 3.125 10.4167 2.89167 10.4167 2.60417C10.4167 1.74271 9.71563 1.04167 8.85417 1.04167C7.99271 1.04167 7.29167 1.74271 7.29167 2.60417C7.29167 2.89167 7.05834 3.125 6.77084 3.125H5.20834Z" fill="#D2D2D2"/>
<path d="M14.0625 9.37504H3.64583C3.35833 9.37504 3.12499 9.14171 3.12499 8.85421C3.12499 8.56671 3.35833 8.33337 3.64583 8.33337H14.0625C14.35 8.33337 14.5833 8.56671 14.5833 8.85421C14.5833 9.14171 14.35 9.37504 14.0625 9.37504Z" fill="#D2D2D2"/>
<path d="M14.0625 12.5H3.64583C3.35833 12.5 3.12499 12.2667 3.12499 11.9792C3.12499 11.6916 3.35833 11.4583 3.64583 11.4583H14.0625C14.35 11.4583 14.5833 11.6916 14.5833 11.9792C14.5833 12.2667 14.35 12.5 14.0625 12.5Z" fill="#D2D2D2"/>
<path d="M14.0625 15.625H3.64583C3.35833 15.625 3.12499 15.3917 3.12499 15.1042C3.12499 14.8167 3.35833 14.5834 3.64583 14.5834H14.0625C14.35 14.5834 14.5833 14.8167 14.5833 15.1042C14.5833 15.3917 14.35 15.625 14.0625 15.625Z" fill="#D2D2D2"/>
</g>
<defs>
<clipPath id="clip0">
<rect width="25" height="25" fill="white"/>
</clipPath>
</defs>
</svg>