<svg width="30" height="30" viewBox="0 0 30 30" fill="none" xmlns="http://www.w3.org/2000/svg">
<path d="M15 0C6.72914 0 0 6.72914 0 15C0 23.2709 6.72914 30 15 30C23.2709 30 30 23.2709 30 15C30 6.72914 23.2709 0 15 0ZM23.5668 10.7007L12.7588 21.5088C12.5146 21.7529 12.1948 21.875 11.875 21.875C11.5552 21.875 11.2354 21.7529 10.9912 21.5088L5.1832 15.7007C4.93904 15.4566 4.93904 15.0609 5.1832 14.8168L6.06686 13.9331C6.31102 13.689 6.70664 13.689 6.9508 13.9331L11.875 18.8574L21.7992 8.93309C22.0434 8.68904 22.439 8.68904 22.6832 8.93309L23.5668 9.8168C23.811 10.0609 23.811 10.4566 23.5668 10.7007Z" fill="#4162F6"/>
</svg>
