<svg width="25" height="25" viewBox="0 0 25 25" fill="none" xmlns="http://www.w3.org/2000/svg">
<g clip-path="url(#clip0)">
<path d="M17.054 0.199995C16.879 0.299995 15.804 1.725 14.629 3.375L12.504 6.35L11.104 6.275C10.354 6.25 9.12896 6.4 8.40396 6.6C6.82896 7.05 4.97896 8.325 4.97896 8.95C4.97896 9.5 15.479 20 16.054 20C16.654 20 17.929 18.15 18.379 16.575C18.579 15.85 18.729 14.6 18.704 13.8L18.629 12.375L21.729 10.25C26.054 7.3 26.054 7.45 21.804 3.2C18.629 -3.8147e-06 17.979 -0.400005 17.054 0.199995Z" fill="#D2D2D2"/>
<path d="M4.15 18.8C-1.9 26.475 -1.525 26.925 6.025 20.975C8.825 18.75 11.175 16.9 11.225 16.85C11.35 16.725 8.475 13.75 8.25 13.75C8.175 13.75 6.325 16.025 4.15 18.8Z" fill="#D2D2D2"/>
</g>
<defs>
<clipPath id="clip0">
<rect width="25" height="25" fill="white"/>
</clipPath>
</defs>
</svg>