<svg width="32" height="32" viewBox="0 0 32 32" fill="none" xmlns="http://www.w3.org/2000/svg">
<path d="M10.8405 0.542519C6.57422 2.08386 3.04232 5.27165 1.11902 9.30017C0.0349692 11.5772 0 11.8574 0 16.0961C0 20.4399 0 20.51 1.29386 23.1022C2.93742 26.4301 5.83986 29.3026 9.16194 30.879C11.4349 31.965 11.7147 32 15.911 32C20.1073 32 20.3871 31.965 22.6601 30.879C27.8705 28.3918 31.5772 23.2423 31.9269 17.9878C32.0668 15.5006 32.0668 15.3605 31.3674 15.3605C30.5631 15.3605 30.4232 15.7108 30.1085 18.4782C29.8637 20.7902 27.7306 24.8187 25.8423 26.5352C24.968 27.376 23.2196 28.532 21.9257 29.1275C19.7576 30.1784 19.303 30.2485 15.911 30.2485C12.519 30.2485 12.0644 30.1784 9.89629 29.1275C6.64415 27.5861 4.61594 25.6244 3.04232 22.4366C1.78343 19.8794 1.74846 19.6342 1.74846 16.0961C1.74846 12.6631 1.8184 12.2077 2.83251 10.1059C4.68588 6.18245 7.16869 3.90546 11.2601 2.39914C14.4423 1.24313 18.7435 1.45331 21.8558 2.95963C23.1147 3.55515 24.8282 4.71116 25.7024 5.48183L27.276 6.91809L24.7582 6.95312C22.4502 6.95312 22.2055 7.02318 22.2055 7.65373C22.2055 8.31931 22.4502 8.35434 26.0521 8.35434H29.8987V4.50098C29.8987 0.892824 29.8637 0.64761 29.1993 0.64761C28.5699 0.64761 28.4999 0.892824 28.4999 3.13478V5.65699L26.7515 4.01055C25.7723 3.09975 23.919 1.83865 22.6251 1.24313C20.492 0.227243 19.8975 0.12215 16.4355 0.0170593C13.4282 -0.0530014 12.2043 0.0871201 10.8405 0.542519Z" fill="#4162F6"/>
</svg>