<svg width="25" height="25" viewBox="0 0 25 25" fill="none" xmlns="http://www.w3.org/2000/svg">
<g clip-path="url(#clip0)">
<path d="M15.9484 9.05756C15.625 9.05756 15.3629 9.31965 15.3629 9.64304V20.7086C15.3629 21.0318 15.625 21.2941 15.9484 21.2941C16.2718 21.2941 16.5339 21.0318 16.5339 20.7086V9.64304C16.5339 9.31965 16.2718 9.05756 15.9484 9.05756Z" fill="#D2D2D2"/>
<path d="M9.03973 9.05756C8.71635 9.05756 8.45425 9.31965 8.45425 9.64304V20.7086C8.45425 21.0318 8.71635 21.2941 9.03973 21.2941C9.36312 21.2941 9.62521 21.0318 9.62521 20.7086V9.64304C9.62521 9.31965 9.36312 9.05756 9.03973 9.05756Z" fill="#D2D2D2"/>
<path d="M4.00462 7.44268V21.8676C4.00462 22.7202 4.31726 23.5209 4.8634 24.0954C5.40702 24.6715 6.16357 24.9986 6.95534 24.9999H18.0328C18.8248 24.9986 19.5813 24.6715 20.1247 24.0954C20.6708 23.5209 20.9835 22.7202 20.9835 21.8676V7.44268C22.0691 7.15452 22.7726 6.10569 22.6274 4.99168C22.4819 3.8779 21.5331 3.04473 20.4097 3.0445H17.4121V2.31266C17.4155 1.69722 17.1722 1.10625 16.7365 0.671486C16.3008 0.236952 15.7089 -0.00501556 15.0935 1.58919e-05H9.89462C9.27918 -0.00501556 8.6873 0.236952 8.25162 0.671486C7.81594 1.10625 7.57261 1.69722 7.57604 2.31266V3.0445H4.57843C3.45505 3.04473 2.50616 3.8779 2.36071 4.99168C2.21548 6.10569 2.91897 7.15452 4.00462 7.44268V7.44268ZM18.0328 23.829H6.95534C5.95431 23.829 5.17558 22.9691 5.17558 21.8676V7.49414H19.8125V21.8676C19.8125 22.9691 19.0338 23.829 18.0328 23.829ZM8.74699 2.31266C8.7431 2.0078 8.86294 1.71437 9.0793 1.49916C9.29542 1.28395 9.58953 1.16571 9.89462 1.17097H15.0935C15.3986 1.16571 15.6927 1.28395 15.9088 1.49916C16.1252 1.71414 16.245 2.0078 16.2411 2.31266V3.0445H8.74699V2.31266ZM4.57843 4.21546H20.4097C20.9917 4.21546 21.4635 4.68727 21.4635 5.26932C21.4635 5.85137 20.9917 6.32318 20.4097 6.32318H4.57843C3.99639 6.32318 3.52457 5.85137 3.52457 5.26932C3.52457 4.68727 3.99639 4.21546 4.57843 4.21546V4.21546Z" fill="#D2D2D2"/>
<path d="M12.4941 9.05756C12.1707 9.05756 11.9086 9.31965 11.9086 9.64304V20.7086C11.9086 21.0318 12.1707 21.2941 12.4941 21.2941C12.8174 21.2941 13.0795 21.0318 13.0795 20.7086V9.64304C13.0795 9.31965 12.8174 9.05756 12.4941 9.05756Z" fill="#D2D2D2"/>
</g>
<defs>
<clipPath id="clip0">
<rect width="25" height="25" fill="white"/>
</clipPath>
</defs>
</svg>